<svg width="156" height="156" viewBox="0 0 156 156" fill="none" xmlns="http://www.w3.org/2000/svg">
<path d="M30.8657 77.5292L54.4477 53.9471L65.9701 65.4695C68.5373 68.0366 71.9403 69.1709 75.2836 68.9321C78.0895 68.753 80.7761 67.559 82.9253 65.4695L83.8806 64.5142L54.4477 35.1411L12 77.5292L54.4477 119.977C56.9552 117.469 58.2686 114.186 58.3283 110.843C58.388 107.32 57.1343 103.798 54.4477 101.111L30.8657 77.5292Z" fill="#00B359"/>
<path d="M101.552 35.1411C99.2836 37.4098 98.0299 40.2157 97.7314 43.1411C97.3135 47.0217 98.5672 51.0217 101.552 54.0068L125.134 77.5889L101.552 101.171L90.9254 90.5441C87.8806 87.4993 83.6418 86.2456 79.6418 86.7829C76.8359 87.1411 74.209 88.4545 72.0597 90.5441L101.552 120.037L144 77.5889L101.552 35.1411Z" fill="#00B359"/>
<path d="M54.5075 86.1261C59.2555 86.1261 63.1045 82.2771 63.1045 77.5291C63.1045 72.7811 59.2555 68.9321 54.5075 68.9321C49.7595 68.9321 45.9104 72.7811 45.9104 77.5291C45.9104 82.2771 49.7595 86.1261 54.5075 86.1261Z" fill="#00B359"/>
<path d="M101.492 86.1859C106.24 86.1859 110.089 82.3368 110.089 77.5888C110.089 72.8409 106.24 68.9918 101.492 68.9918C96.7444 68.9918 92.8954 72.8409 92.8954 77.5888C92.8954 82.3368 96.7444 86.1859 101.492 86.1859Z" fill="#00B359"/>
</svg>
